<?xml version="1.0" encoding="UTF-8"?>
<svg version="1.1" xmlns="http://www.w3.org/2000/svg" width="40" height="40">
<path d="M0 0 C10.19284772 4.97734854 10.19284772 4.97734854 14 9 C14.56617802 11.92670485 14.38716903 14.31954149 14.08203125 17.27734375 C13.9693758 21.01643192 15.27022804 23.24090113 17.22265625 26.34375 C18 28 18 28 17 31 C14.453125 32.859375 14.453125 32.859375 11.25 34.75 C10.20328125 35.38421875 9.1565625 36.0184375 8.078125 36.671875 C3.95074858 38.4527227 2.19636916 37.84383197 -1.87207031 36.28076172 C-4.01776817 35.41533361 -6.13354183 34.49701525 -8.25 33.5625 C-8.9821875 33.24990234 -9.714375 32.93730469 -10.46875 32.61523438 C-15.87660233 30.24679535 -15.87660233 30.24679535 -17 28 C-18.14463424 23.21161343 -18.69607497 18.89361798 -18 14 C-14.92890597 10.05465292 -11.20991743 7.6318954 -7 5 C-5.59816174 3.98742858 -4.20107012 2.96819123 -2.8125 1.9375 C-1.884375 1.298125 -0.95625 0.65875 0 0 Z M0 5 C-2.31592022 8.22114157 -2.31592022 8.22114157 -3 12 C0.60992379 11.34414811 0.60992379 11.34414811 4 10 C3.34 8.35 2.68 6.7 2 5 C1.34 5 0.68 5 0 5 Z M-6 8 C-8.31 9.65 -10.62 11.3 -13 13 C-12.34 13.66 -11.68 14.32 -11 15 C-10.01 15 -9.02 15 -8 15 C-6.17394457 12.67881567 -6.17394457 12.67881567 -5 10 C-5.33 9.34 -5.66 8.68 -6 8 Z M7 8 C8.07401108 10.91517292 8.77810176 12.77810176 11 15 C11.33 13.68 11.66 12.36 12 11 C10.35 10.01 8.7 9.02 7 8 Z M6 13 C5.46770674 14.26607607 4.94955456 15.53810412 4.4375 16.8125 C4.14746094 17.52019531 3.85742188 18.22789063 3.55859375 18.95703125 C2.74936976 21.1735067 2.74936976 21.1735067 4 24 C5.98 22.68 7.96 21.36 10 20 C9.01 17.69 8.02 15.38 7 13 C6.67 13 6.34 13 6 13 Z M2 13 C-4.90183301 15.85820184 -9.07522216 17.95394429 -12 25 C-12 25.66 -12 26.32 -12 27 C-8.37 27 -4.74 27 -1 27 C-0.3012307 25.23358317 0.38366583 23.46167336 1.0625 21.6875 C1.44535156 20.70136719 1.82820313 19.71523438 2.22265625 18.69921875 C3.29389848 15.93766737 3.29389848 15.93766737 2 13 Z M-15 16 C-14.67 18.31 -14.34 20.62 -14 23 C-12.68 21.35 -11.36 19.7 -10 18 C-12.38162009 16.58614089 -12.38162009 16.58614089 -15 16 Z M4 26 C7.6441774 28.4294516 9.71241272 28.16179575 14 28 C13.34 26.02 12.68 24.04 12 22 C8.71841516 22 6.62118892 24.17656423 4 26 Z M-7 30 C-4.61426621 31.89213369 -2.92824652 33.02391783 0 34 C-0.33 32.68 -0.66 31.36 -1 30 C-2.98 30 -4.96 30 -7 30 Z M2 30 C2.66 31.65 3.32 33.3 4 35 C6.64 33.68 9.28 32.36 12 31 C12 30.67 12 30.34 12 30 C8.7 30 5.4 30 2 30 Z " fill="#FF7A00" transform="translate(20,1)"/>
</svg>
