<?xml version="1.0" encoding="UTF-8"?>
<svg version="1.1" xmlns="http://www.w3.org/2000/svg" width="400" height="139">
<path d="M0 0 C3.33782006 1.10442575 5.41389065 2.7335121 8.15625 4.94140625 C9.28820605 5.83962205 10.42109045 6.73666862 11.5546875 7.6328125 C12.18987305 8.13828613 12.82505859 8.64375977 13.47949219 9.16455078 C17.87152959 12.62360042 22.33215233 15.99380588 26.78125 19.37890625 C27.70615234 20.08539307 28.63105469 20.79187988 29.58398438 21.51977539 C30.45603516 22.18485107 31.32808594 22.84992676 32.2265625 23.53515625 C33.00789551 24.13134766 33.78922852 24.72753906 34.59423828 25.34179688 C36.24460568 26.57204944 37.94351253 27.73708127 39.65625 28.87890625 C40.0992043 33.50647586 39.6231666 37.34380972 38.54296875 41.84765625 C35.04368101 57.21058645 38.3681049 66.11838907 46.609375 79.33984375 C48.44646191 82.2584376 48.44646191 82.2584376 50.65625 84.87890625 C51.15234375 87.1640625 51.15234375 87.1640625 50.65625 89.87890625 C48.34312985 91.6574952 46.2700271 92.9568972 43.71875 94.31640625 C42.98108398 94.72673096 42.24341797 95.13705566 41.48339844 95.55981445 C39.82160054 96.48346727 38.155785 97.3999149 36.48681641 98.31054688 C33.34204149 100.05300281 30.23977027 101.86011294 27.13671875 103.67578125 C24.89364597 104.97337702 22.65015831 106.27025588 20.40625 107.56640625 C18.7821521 108.52148071 18.7821521 108.52148071 17.12524414 109.49584961 C16.09906982 110.07987549 15.07289551 110.66390137 14.015625 111.265625 C13.10264648 111.79373779 12.18966797 112.32185059 11.24902344 112.8659668 C6.97334439 114.53638039 4.43259009 113.18923989 0.28491211 111.53125 C-1.0011613 110.96483057 -2.28481176 110.39288812 -3.56640625 109.81640625 C-4.26071747 109.5089447 -4.95502869 109.20148315 -5.67037964 108.88470459 C-7.91797014 107.88785586 -10.16220928 106.88371754 -12.40625 105.87890625 C-13.94655385 105.19271477 -15.48700032 104.50684332 -17.02758789 103.82128906 C-20.0707023 102.46621958 -23.11243732 101.10811564 -26.15332031 99.74804688 C-29.73874129 98.14601144 -33.33221583 96.56310097 -36.9296875 94.98828125 C-38.71361557 94.20199057 -40.49747698 93.41554862 -42.28125 92.62890625 C-43.07732666 92.2834375 -43.87340332 91.93796875 -44.69360352 91.58203125 C-51.3823381 88.60626055 -51.3823381 88.60626055 -53.34375 85.87890625 C-53.8134389 83.29031165 -54.1109004 80.89122553 -54.29296875 78.28125 C-54.38648369 77.15790001 -54.38648369 77.15790001 -54.48188782 76.01185608 C-54.61155123 74.42450753 -54.73469446 72.83661489 -54.85180664 71.24829102 C-55.02888329 68.84848079 -55.22442324 66.45078192 -55.42382812 64.05273438 C-55.73004031 60.30633803 -55.97876582 56.55896616 -56.20587158 52.80703735 C-56.32609383 51.12581511 -56.51445353 49.44974213 -56.71435547 47.77612305 C-57.03650012 44.11995449 -57.1536708 41.91751988 -54.84448242 38.95629883 C-52.6955188 37.03786938 -50.47974968 35.42978975 -48.09375 33.81640625 C-47.26399658 33.21554199 -46.43424316 32.61467773 -45.5793457 31.99560547 C-43.92450766 30.79977477 -42.2603279 29.61674993 -40.58642578 28.44775391 C-37.84929082 26.5330109 -35.18891439 24.52713547 -32.53125 22.50390625 C-31.61859375 21.82457031 -30.7059375 21.14523438 -29.765625 20.4453125 C-23.96018576 16.10948917 -18.2182577 11.68850598 -12.46362305 7.28564453 C-11.58746338 6.61645996 -10.71130371 5.94727539 -9.80859375 5.2578125 C-8.62704712 4.35397827 -8.62704712 4.35397827 -7.42163086 3.43188477 C-2.64680548 -0.13675162 -2.64680548 -0.13675162 0 0 Z M-1.34375 7.87890625 C-2.75187509 9.97716738 -4.02734615 12.0648413 -5.28125 14.25390625 C-6.07978391 15.61774139 -6.87930974 16.98099612 -7.6796875 18.34375 C-8.10604492 19.07319824 -8.53240234 19.80264648 -8.97167969 20.55419922 C-11.40148047 24.67102539 -13.90666434 28.74171134 -16.40625 32.81640625 C-17.35550113 34.36716768 -18.30472264 35.91794724 -19.25390625 37.46875 C-19.94355469 38.59410156 -20.63320313 39.71945313 -21.34375 40.87890625 C-20.68375 41.20890625 -20.02375 41.53890625 -19.34375 41.87890625 C-16.95329506 40.96743372 -14.68132289 39.99319779 -12.3671875 38.9140625 C-11.33931625 38.44582314 -11.33931625 38.44582314 -10.29067993 37.96812439 C-8.09658671 36.96656555 -5.90770237 35.95414429 -3.71875 34.94140625 C-2.23470448 34.26165 -0.75033335 33.58260416 0.734375 32.90429688 C4.37883353 31.23739531 8.01865649 29.56073306 11.65625 27.87890625 C10.07333523 22.83047525 8.02579494 18.89531848 5.15625 14.50390625 C4.55103516 13.54291016 4.55103516 13.54291016 3.93359375 12.5625 C2.8995819 10.96199981 1.78398229 9.4148103 0.65625 7.87890625 C-0.00375 7.87890625 -0.66375 7.87890625 -1.34375 7.87890625 Z M-11.34375 12.87890625 C-11.80523437 13.24016602 -12.26671875 13.60142578 -12.7421875 13.97363281 C-21.85587166 21.10157847 -30.99135885 28.1887909 -40.30273438 35.05761719 C-43.17411895 37.18804738 -45.86061005 39.30826296 -48.34375 41.87890625 C-45.76307437 42.5780893 -43.18002153 43.26351674 -40.59375 43.94140625 C-39.86414062 44.14056641 -39.13453125 44.33972656 -38.3828125 44.54492188 C-33.27970952 46.00768738 -33.27970952 46.00768738 -28.34375 44.87890625 C-26.79392128 42.78028941 -25.51238404 40.79822924 -24.234375 38.54296875 C-23.86270203 37.90781342 -23.49102905 37.27265808 -23.10809326 36.61825562 C-22.32562167 35.27504775 -21.54932931 33.92822388 -20.77880859 32.578125 C-19.59762108 30.51068183 -18.39635029 28.45601318 -17.19140625 26.40234375 C-16.43368038 25.0957562 -15.67712959 23.78848634 -14.921875 22.48046875 C-14.56256897 21.86475006 -14.20326294 21.24903137 -13.83306885 20.61465454 C-12.24073271 17.80801151 -11.34375 16.16319847 -11.34375 12.87890625 Z M9.65625 13.87890625 C10.01074219 14.47832031 10.36523438 15.07773437 10.73046875 15.6953125 C13.85361647 21.01146952 16.92803604 26.34962112 19.9453125 31.7265625 C20.52450439 32.75773193 21.10369629 33.78890137 21.70043945 34.85131836 C22.87367757 36.94299637 24.04411719 39.03624668 25.21166992 41.13110352 C25.75670166 42.10233154 26.3017334 43.07355957 26.86328125 44.07421875 C27.3528833 44.95094238 27.84248535 45.82766602 28.34692383 46.73095703 C29.6051511 48.98496176 29.6051511 48.98496176 31.65625 50.87890625 C34.67495621 47.86020004 34.90326617 40.75938449 35.2109375 36.625 C35.11820876 32.80563996 34.392708 30.96646566 31.7265625 28.2265625 C28.53238375 25.52569639 25.09106866 23.2391416 21.53076172 21.05078125 C19.1656434 19.57219725 17.01541058 17.87594046 14.84375 16.12890625 C12.03419776 13.68667852 12.03419776 13.68667852 9.65625 13.87890625 Z M-29.05761719 52.40625 C-32.73579421 57.06019763 -35.21219613 62.11320384 -37.3984375 67.60546875 C-38.81018023 71.00065168 -40.67239182 73.99561445 -42.59375 77.12890625 C-43.51179493 78.71144084 -44.4291153 80.29439825 -45.34375 81.87890625 C-43.39710478 84.2657413 -43.39710478 84.2657413 -39.81201172 84.10595703 C-38.29911669 84.10563988 -36.78619912 84.09431258 -35.2734375 84.07421875 C-34.47720978 84.07138885 -33.68098206 84.06855896 -32.86062622 84.06564331 C-30.31318237 84.05443265 -27.76608789 84.02932687 -25.21875 84.00390625 C-23.49349465 83.99387758 -21.76823381 83.98475153 -20.04296875 83.9765625 C-15.80976086 83.95449047 -11.5768147 83.91995492 -7.34375 83.87890625 C-3.68130098 75.0082817 -0.37942601 66.00207695 2.93945312 56.99902344 C3.91463695 54.35617676 4.8947634 51.71519486 5.875 49.07421875 C6.4950939 47.3946428 7.1148964 45.71495923 7.734375 44.03515625 C8.02805969 43.24564575 8.32174438 42.45613525 8.62432861 41.6427002 C10.11990125 37.86145907 10.11990125 37.86145907 10.65625 33.87890625 C-0.81590816 33.87890625 -20.82542749 44.73985671 -29.05761719 52.40625 Z M15.65625 34.87890625 C13.51372648 40.51822569 11.3776531 46.15992917 9.24755859 51.80395508 C8.52179549 53.72422359 7.79426451 55.6438249 7.06494141 57.56274414 C6.01781787 60.31874479 4.97704513 63.07707089 3.9375 65.8359375 C3.60939331 66.69540482 3.28128662 67.55487213 2.9432373 68.44038391 C2.64292603 69.2409874 2.34261475 70.04159088 2.03320312 70.86645508 C1.76672974 71.57038895 1.50025635 72.27432281 1.22570801 72.99958801 C0.51125385 75.03013733 0.51125385 75.03013733 0.65625 77.87890625 C5.69227242 76.28187969 9.40980857 73.25185677 13.53125 70.06640625 C14.90305458 69.01745549 16.27544584 67.9692715 17.6484375 66.921875 C18.31198242 66.41446777 18.97552734 65.90706055 19.65917969 65.38427734 C22.61634195 63.1551988 25.63151187 61.01517692 28.65625 58.87890625 C28.08195028 55.34391891 27.17872968 52.61455584 25.44140625 49.48828125 C25.00248047 48.69679688 24.56355469 47.9053125 24.11132812 47.08984375 C23.65177734 46.27773438 23.19222656 45.465625 22.71875 44.62890625 C22.26306641 43.80132812 21.80738281 42.97375 21.33789062 42.12109375 C19.21448765 37.79608959 19.21448765 37.79608959 15.65625 34.87890625 Z M-51.34375 45.87890625 C-51.10697202 49.81238993 -50.8584627 53.74493969 -50.59912109 57.67700195 C-50.47002889 59.67164568 -50.35020202 61.66688199 -50.23046875 63.66210938 C-50.14667969 64.91572266 -50.06289063 66.16933594 -49.9765625 67.4609375 C-49.90324707 68.61827393 -49.82993164 69.77561035 -49.75439453 70.96801758 C-49.53158391 74.06627508 -49.53158391 74.06627508 -47.34375 76.87890625 C-45.17894739 73.36133916 -43.02468973 69.83756268 -40.88012695 66.30761719 C-40.14864653 65.1069557 -39.41427597 63.90805012 -38.67700195 62.7109375 C-37.61958144 60.99289583 -36.57328268 59.26802442 -35.52734375 57.54296875 C-34.89368896 56.5060791 -34.26003418 55.46918945 -33.60717773 54.40087891 C-33.19024658 53.56862793 -32.77331543 52.73637695 -32.34375 51.87890625 C-33.12940771 49.72002235 -33.12940771 49.72002235 -35.10961914 49.28466797 C-35.85848389 49.12756348 -36.60734863 48.97045898 -37.37890625 48.80859375 C-38.18779297 48.63457031 -38.99667969 48.46054687 -39.83007812 48.28125 C-40.68021484 48.10722656 -41.53035156 47.93320312 -42.40625 47.75390625 C-43.26025391 47.57214844 -44.11425781 47.39039063 -44.99414062 47.203125 C-47.10908296 46.75414283 -49.22622647 46.31555274 -51.34375 45.87890625 Z M24.40625 67.25390625 C23.148629 68.1669305 21.89081035 69.07968256 20.6328125 69.9921875 C19.65683105 70.7030249 19.65683105 70.7030249 18.66113281 71.42822266 C16.65669804 72.87858206 14.63980542 74.30950502 12.6171875 75.734375 C11.97426758 76.18828613 11.33134766 76.64219727 10.66894531 77.10986328 C9.42234229 77.98919242 8.17431968 78.86651289 6.92480469 79.74169922 C5.48414087 80.76275624 4.06734898 81.81736523 2.65625 82.87890625 C2.65625 83.20890625 2.65625 83.53890625 2.65625 83.87890625 C11.35838607 85.04172558 20.02413151 84.9947052 28.78125 84.94140625 C30.22916511 84.93637877 31.67708192 84.93181808 33.125 84.92773438 C36.63545259 84.9168333 40.14584007 84.89963827 43.65625 84.87890625 C42.53225601 81.31144706 41.35425125 78.03827986 39.4921875 74.79296875 C39.09257813 74.09042969 38.69296875 73.38789062 38.28125 72.6640625 C37.86875 71.95121094 37.45625 71.23835938 37.03125 70.50390625 C36.61101562 69.76785156 36.19078125 69.03179687 35.7578125 68.2734375 C34.72872236 66.47252975 33.69314244 64.67533307 32.65625 62.87890625 C29.32713031 62.87890625 27.00576714 65.34452329 24.40625 67.25390625 Z M-36.34375 88.87890625 C-33.15120092 91.0072723 -29.8505057 92.58070319 -26.375 94.171875 C-25.35992371 94.63730461 -25.35992371 94.63730461 -24.32434082 95.11213684 C-22.89614227 95.76504672 -21.46720971 96.41635307 -20.03759766 97.06616211 C-17.84772525 98.06459381 -15.66421043 99.07613455 -13.48046875 100.08789062 C-12.09152058 100.72087503 -10.70220954 101.35306393 -9.3125 101.984375 C-8.65930786 102.28949509 -8.00611572 102.59461517 -7.33312988 102.90898132 C-3.46190638 104.719975 -3.46190638 104.719975 0.65625 103.87890625 C-1.98375 98.92890625 -4.62375 93.97890625 -7.34375 88.87890625 C-16.91375 88.87890625 -26.48375 88.87890625 -36.34375 88.87890625 Z M-1.34375 88.87890625 C1.62625 95.14890625 4.59625 101.41890625 7.65625 107.87890625 C18.53353578 102.53738198 29.14988073 96.91448009 39.65625 90.87890625 C39.65625 90.54890625 39.65625 90.21890625 39.65625 89.87890625 C19.16303021 89.02035779 19.16303021 89.02035779 -1.34375 88.87890625 Z " fill="#FEFEFE" transform="translate(63.34375,11.12109375)"/>
<path d="M0 0 C9 0 9 0 11.8984375 2.5703125 C12.75291946 3.73449606 13.57735196 4.9211643 14.375 6.125 C15.29469102 7.40167743 16.21529309 8.67769896 17.13671875 9.953125 C17.60126465 10.61634766 18.06581055 11.27957031 18.54443359 11.96289062 C20.97241577 15.3609254 23.58844185 18.60734497 26.1875 21.875 C27.775625 23.89625 29.36375 25.9175 31 28 C31.33 18.76 31.66 9.52 32 0 C35.63 0 39.26 0 43 0 C43 16.5 43 33 43 50 C34 50 34 50 31.50390625 48.05078125 C30.86324219 47.14714844 30.22257812 46.24351563 29.5625 45.3125 C28.82902344 44.31734375 28.09554688 43.3221875 27.33984375 42.296875 C26.96327637 41.76255859 26.58670898 41.22824219 26.19873047 40.67773438 C24.51702073 38.32402575 22.73548707 36.05300265 20.95678711 33.7722168 C17.92645644 29.88194994 14.95871924 25.94495898 12 22 C11.67 31.24 11.34 40.48 11 50 C7.37 50 3.74 50 0 50 C0 33.5 0 17 0 0 Z " fill="#FEFEFE" transform="translate(292,33)"/>
<path d="M0 0 C6.4659375 -0.0928125 6.4659375 -0.0928125 13.0625 -0.1875 C14.40836182 -0.21481201 15.75422363 -0.24212402 17.14086914 -0.27026367 C30.09721542 -0.36024502 30.09721542 -0.36024502 35.7421875 4.5 C39.48440347 9.45521011 40.51806021 12.78327745 40 19 C38.18288025 23.50984642 35.48132723 26.64300589 32 30 C32.27263672 30.5347998 32.54527344 31.06959961 32.82617188 31.62060547 C34.05493614 34.03665007 35.27753298 36.45576347 36.5 38.875 C36.92925781 39.71675781 37.35851562 40.55851562 37.80078125 41.42578125 C38.20683594 42.23144531 38.61289062 43.03710938 39.03125 43.8671875 C39.59682617 44.98262939 39.59682617 44.98262939 40.17382812 46.12060547 C41 48 41 48 41 50 C37.04 50 33.08 50 29 50 C27.49514966 47.04404397 25.99595081 44.0854552 24.5 41.125 C24.07074219 40.28324219 23.64148438 39.44148438 23.19921875 38.57421875 C22.59013672 37.36572266 22.59013672 37.36572266 21.96875 36.1328125 C21.59169922 35.38918457 21.21464844 34.64555664 20.82617188 33.87939453 C20 32 20 32 20 30 C16.7 30 13.4 30 10 30 C10 36.6 10 43.2 10 50 C6.7 50 3.4 50 0 50 C0 33.5 0 17 0 0 Z M10 10 C10 13.3 10 16.6 10 20 C12.79192205 20.05380578 15.5828141 20.09357669 18.375 20.125 C19.1690625 20.14175781 19.963125 20.15851562 20.78125 20.17578125 C22.85492015 20.19335473 24.92883241 20.10335168 27 20 C27.66 19.34 28.32 18.68 29 18 C28.83582968 14.43407381 28.83582968 14.43407381 28 11 C24.81175432 9.40587716 21.37103338 9.89825265 17.875 9.9375 C16.74384766 9.94426758 16.74384766 9.94426758 15.58984375 9.95117188 C13.72652873 9.96296501 11.86325445 9.98090058 10 10 Z " fill="#FEFEFE" transform="translate(228,33)"/>
<path d="M0 0 C5.27701538 5.39694755 8.2742191 11.13096407 8.375 18.75 C8.22266154 25.64754709 6.84080203 30.77581539 2.234375 36.00390625 C-3.48881586 41.40037952 -9.07768603 44.04876113 -16.9375 44.4375 C-24.91774204 44.1678144 -31.43883688 40.56116312 -37 35 C-41.71781834 28.28618159 -42.69644516 22.04642894 -42 14 C-39.13926978 5.41780934 -35.01273982 0.02909034 -27 -4 C-17.62397695 -7.81986124 -8.14168495 -5.71321686 0 0 Z M-28.3125 9.5625 C-31.59214856 14.29977014 -31.49157654 18.34240094 -31 24 C-29.0487667 28.72403852 -25.55057782 31.72471109 -21 34 C-15.65766707 34.35031691 -12.30846863 34.49335294 -8 31 C-4.9478184 27.9478184 -3.23058743 25.77823258 -2 21.625 C-2 15.51381666 -3.55425484 11.61785768 -7.625 7.0625 C-15.11248412 2.48681526 -22.24609133 2.84026336 -28.3125 9.5625 Z " fill="#FEFEFE" transform="translate(382,39)"/>
<path d="M0 0 C4.07612689 3.0991171 7.02839943 7.30270294 9.203125 11.90234375 C9.203125 12.89234375 9.203125 13.88234375 9.203125 14.90234375 C-0.42568611 15.98173005 -0.42568611 15.98173005 -3.6875 13.4140625 C-4.67037838 12.16477235 -5.6244363 10.89221511 -6.546875 9.59765625 C-8.35804798 7.14125289 -9.81652283 6.47002988 -12.796875 5.90234375 C-17.28241769 6.01219378 -21.89470988 6.6069525 -25.796875 8.90234375 C-27.10755833 11.34523003 -27.10755833 11.34523003 -27.796875 13.90234375 C-28.126875 14.56234375 -28.456875 15.22234375 -28.796875 15.90234375 C-29.33968437 22.30749436 -28.6647893 25.71119561 -24.796875 30.90234375 C-20.46840504 33.88417861 -16.99609571 34.54084454 -11.796875 33.90234375 C-7.85604503 32.3624396 -5.32873257 30.70930006 -2.984375 27.15234375 C-0.796875 24.90234375 -0.796875 24.90234375 1.66796875 24.5859375 C4.1982026 24.58948622 6.68274912 24.68589926 9.203125 24.90234375 C8.86435241 30.32270525 5.80176862 34.07971816 2.203125 37.90234375 C-4.35558558 43.16746781 -9.66989101 45.33681774 -18.06640625 45.25 C-25.10527517 44.35377778 -31.3788364 40.35992084 -35.796875 34.90234375 C-40.31706962 28.62429566 -41.60303274 22.17206962 -40.42578125 14.4765625 C-38.56794229 7.79526587 -34.54259087 2.32028721 -28.703125 -1.44921875 C-18.66988426 -6.65302645 -9.65431925 -5.8975298 0 0 Z " fill="#FEFEFE" transform="translate(153.796875,38.09765625)"/>
<path d="M0 0 C13.53 0 27.06 0 41 0 C41 3.3 41 6.6 41 10 C36.38 10 31.76 10 27 10 C27 23.2 27 36.4 27 50 C23.37 50 19.74 50 16 50 C16 36.8 16 23.6 16 10 C10.72 10 5.44 10 0 10 C0 6.7 0 3.4 0 0 Z " fill="#FEFEFE" transform="translate(183,33)"/>
<path d="M0 0 C3.63 0 7.26 0 11 0 C11 16.5 11 33 11 50 C7.37 50 3.74 50 0 50 C0 33.5 0 17 0 0 Z " fill="#FFFFFF" transform="translate(274,33)"/>
<path d="M0 0 C3.3 0 6.6 0 10 0 C11 1 11 1 11.12025452 2.98048401 C11.1169236 4.2828727 11.1169236 4.2828727 11.11352539 5.61157227 C11.11344986 6.59251358 11.11337433 7.5734549 11.11329651 8.5841217 C11.10813522 9.6507756 11.10297394 10.7174295 11.09765625 11.81640625 C11.0962413 12.9025975 11.09482635 13.98878876 11.09336853 15.1078949 C11.08775048 18.59279075 11.07519492 22.07762342 11.0625 25.5625 C11.05748733 27.91861887 11.05292402 30.27473874 11.04882812 32.63085938 C11.03777518 38.42059743 11.02049846 44.21028799 11 50 C7.37 50 3.74 50 0 50 C0 33.5 0 17 0 0 Z " fill="#FFFFFF" transform="translate(168,33)"/>
<path d="M0 0 C1.32 0 2.64 0 4 0 C5.75 2.5 5.75 2.5 7 5 C7.598125 4.175 8.19625 3.35 8.8125 2.5 C9.534375 1.675 10.25625 0.85 11 0 C11.99 0 12.98 0 14 0 C14 4.29 14 8.58 14 13 C13.01 13 12.02 13 11 13 C10.67 11.68 10.34 10.36 10 9 C9.67 9.66 9.34 10.32 9 11 C7.68 10.67 6.36 10.34 5 10 C4.67 10.99 4.34 11.98 4 13 C2.68 13 1.36 13 0 13 C0 8.71 0 4.42 0 0 Z " fill="#FEFEFE" transform="translate(246,94)"/>
<path d="M0 0 C1.32 0 2.64 0 4 0 C6.25 3 6.25 3 8 6 C8.33 4.02 8.66 2.04 9 0 C9.99 0 10.98 0 12 0 C12 4.29 12 8.58 12 13 C7.70574125 11.92643531 7.25259529 11.4915227 5 8 C4.67 9.65 4.34 11.3 4 13 C2.68 13 1.36 13 0 13 C0 8.71 0 4.42 0 0 Z " fill="#FFFFFF" transform="translate(233,94)"/>
<path d="M0 0 C6.0546875 -0.1953125 6.0546875 -0.1953125 8 0 C10.35302007 2.35302007 10.39392208 3.27435295 10.75 6.5 C10.89695312 7.69109375 10.89695312 7.69109375 11.046875 8.90625 C11 11 11 11 9 13 C5.98173347 13.27240673 3.03629378 13.08675125 0 13 C0 8.71 0 4.42 0 0 Z M3 3 C3 3.66 3 4.32 3 5 C4.32 5 5.64 5 7 5 C7 4.34 7 3.68 7 3 C5.68 3 4.36 3 3 3 Z M3 8 C3 8.66 3 9.32 3 10 C4.65 10 6.3 10 8 10 C7.67 9.34 7.34 8.68 7 8 C5.68 8 4.36 8 3 8 Z " fill="#FEFEFE" transform="translate(276,94)"/>
<path d="M0 0 C2 3 2 3 1.75 6.5625 C1 10 1 10 -1 12 C-7.16 12.56 -7.16 12.56 -9.875 10.75 C-11.20345668 8.68351183 -11.85463211 7.47125406 -12 5 C-8.9450917 -1.25528842 -6.67314456 -1.42995955 0 0 Z M-6 2 C-6.66 2.66 -7.32 3.32 -8 4 C-7.67958603 6.60280568 -7.67958603 6.60280568 -7 9 C-5.35 8.67 -3.7 8.34 -2 8 C-1.67 7.01 -1.34 6.02 -1 5 C-1.66 4.01 -2.32 3.02 -3 2 C-3.99 2 -4.98 2 -6 2 Z " fill="#FFFFFF" transform="translate(352,95)"/>
<path d="M0 0 C7.75 -0.125 7.75 -0.125 10 1 C11.2863012 4.27422122 10.77535155 6.64014328 10 10 C10 10.99 10 11.98 10 13 C8.68 12.67 7.36 12.34 6 12 C5.67 10.68 5.34 9.36 5 8 C4.34 8 3.68 8 3 8 C3 9.65 3 11.3 3 13 C2.01 13 1.02 13 0 13 C0 8.71 0 4.42 0 0 Z M3 3 C3 3.66 3 4.32 3 5 C4.32 5 5.64 5 7 5 C7 4.34 7 3.68 7 3 C5.68 3 4.36 3 3 3 Z " fill="#FEFEFE" transform="translate(324,94)"/>
<path d="M0 0 C3.4375 1.0625 3.4375 1.0625 5.5 3.3125 C6.4375 6.0625 6.4375 6.0625 5.75 8.75 C4.4375 11.0625 4.4375 11.0625 2.4375 13.0625 C-1.19522373 13.53633353 -2.91629564 13.5216452 -5.9375 11.375 C-7.5625 9.0625 -7.5625 9.0625 -8.0625 6.5625 C-7.07705159 1.63525795 -4.95260583 0.08688782 0 0 Z M-2.5625 3.0625 C-3.2225 4.3825 -3.8825 5.7025 -4.5625 7.0625 C-3.5725 8.5475 -3.5725 8.5475 -2.5625 10.0625 C-0.9125 9.7325 0.7375 9.4025 2.4375 9.0625 C2.4375 7.4125 2.4375 5.7625 2.4375 4.0625 C0.7875 3.7325 -0.8625 3.4025 -2.5625 3.0625 Z " fill="#FEFEFE" transform="translate(268.5625,93.9375)"/>
<path d="M0 0 C3.375 0.875 3.375 0.875 5.375 2.875 C5.375 3.865 5.375 4.855 5.375 5.875 C2.70833333 5.20833333 0.04166667 4.54166667 -2.625 3.875 C-2.955 5.195 -3.285 6.515 -3.625 7.875 C-1.15 8.865 -1.15 8.865 1.375 9.875 C1.375 9.215 1.375 8.555 1.375 7.875 C2.695 7.875 4.015 7.875 5.375 7.875 C3.5 11.75 3.5 11.75 2.375 12.875 C-3.8330292 13.33485401 -3.8330292 13.33485401 -6.5625 11.75 C-8.15490283 8.93987736 -8.07819325 7.04735276 -7.625 3.875 C-5.30290294 0.25252859 -4.34513693 -0.14983231 0 0 Z " fill="#FEFEFE" transform="translate(127.625,94.125)"/>
<path d="M0 0 C3.3 0 6.6 0 10 0 C10 0.99 10 1.98 10 3 C7.69 3 5.38 3 3 3 C3 3.66 3 4.32 3 5 C4.65 5 6.3 5 8 5 C8 5.99 8 6.98 8 8 C6.35 8 4.7 8 3 8 C3 8.66 3 9.32 3 10 C5.31 10 7.62 10 10 10 C10 10.99 10 11.98 10 13 C6.7 13 3.4 13 0 13 C0 8.71 0 4.42 0 0 Z " fill="#FFFFFF" transform="translate(201,94)"/>
<path d="M0 0 C0.33 0.99 0.66 1.98 1 3 C0.67 3.66 0.34 4.32 0 5 C0.185625 5.825 0.37125 6.65 0.5625 7.5 C0.706875 8.325 0.85125 9.15 1 10 C-1 12 -1 12 -4.625 12.125 C-5.73875 12.08375 -6.8525 12.0425 -8 12 C-8.33 10.68 -8.66 9.36 -9 8 C-6.03 8.495 -6.03 8.495 -3 9 C-3 8.34 -3 7.68 -3 7 C-3.804375 6.855625 -4.60875 6.71125 -5.4375 6.5625 C-8 6 -8 6 -9 5 C-9.04063832 3.33382885 -9.042721 1.66611905 -9 0 C-5.93109813 -1.53445094 -3.29905734 -0.54984289 0 0 Z M-6 2 C-6 2.66 -6 3.32 -6 4 C-4.68 3.67 -3.36 3.34 -2 3 C-3.32 2.67 -4.64 2.34 -6 2 Z " fill="#FEFEFE" transform="translate(221,95)"/>
<path d="M0 0 C3.625 0.375 3.625 0.375 7 1 C8.09139775 4.95631684 8.18476096 8.05079681 7 12 C6 13 6 13 3.0625 13.125 C0 13 0 13 -2 12 C-2 11.01 -2 10.02 -2 9 C-0.02 9 1.96 9 4 9 C3.195625 8.773125 2.39125 8.54625 1.5625 8.3125 C-1 7 -1 7 -1.9375 4.5 C-1.958125 3.675 -1.97875 2.85 -2 2 C-1.34 1.34 -0.68 0.68 0 0 Z M1 3 C1 3.66 1 4.32 1 5 C2.32 4.67 3.64 4.34 5 4 C3.68 3.67 2.36 3.34 1 3 Z " fill="#FEFEFE" transform="translate(357,94)"/>
<path d="M0 0 C0.99 0 1.98 0 3 0 C3.84069415 1.60032137 4.67231505 3.20541171 5.5 4.8125 C5.9640625 5.70582031 6.428125 6.59914063 6.90625 7.51953125 C8 10 8 10 8 13 C6.68 12.67 5.36 12.34 4 12 C4 11.34 4 10.68 4 10 C2.35 10 0.7 10 -1 10 C-1.33 10.99 -1.66 11.98 -2 13 C-2.99 13 -3.98 13 -5 13 C-4.39254603 8.14036821 -2.27241033 4.2594482 0 0 Z M1 5 C2 7 2 7 2 7 Z " fill="#FFFFFF" transform="translate(181,94)"/>
<path d="M0 0 C3 1 3 1 4.38671875 3.72265625 C4.81597656 4.82480469 5.24523437 5.92695312 5.6875 7.0625 C6.34298828 8.71958984 6.34298828 8.71958984 7.01171875 10.41015625 C7.33785156 11.26480469 7.66398438 12.11945313 8 13 C6.68 13 5.36 13 4 13 C3.67 12.34 3.34 11.68 3 11 C1.68 11 0.36 11 -1 11 C-1.33 11.66 -1.66 12.32 -2 13 C-3.32 13 -4.64 13 -6 13 C-4.58707905 8.1725201 -2.57025846 4.2837641 0 0 Z " fill="#FFFFFF" transform="translate(140,94)"/>
<path d="M0 0 C6.8359375 -0.1953125 6.8359375 -0.1953125 9 0 C9.66 0.66 10.32 1.32 11 2 C10.44444444 6.55555556 10.44444444 6.55555556 9 8 C7.00041636 8.04080783 4.99954746 8.04254356 3 8 C3 9.65 3 11.3 3 13 C2.01 13 1.02 13 0 13 C0 8.71 0 4.42 0 0 Z M3 3 C3 3.66 3 4.32 3 5 C4.32 5 5.64 5 7 5 C7 4.34 7 3.68 7 3 C5.68 3 4.36 3 3 3 Z " fill="#FEFEFE" transform="translate(149,94)"/>
<path d="M0 0 C0.99 0 1.98 0 3 0 C3.84069415 1.60032137 4.67231505 3.20541171 5.5 4.8125 C5.9640625 5.70582031 6.428125 6.59914063 6.90625 7.51953125 C8 10 8 10 8 13 C6.68 12.67 5.36 12.34 4 12 C4 11.34 4 10.68 4 10 C2.35 10 0.7 10 -1 10 C-1.33 10.99 -1.66 11.98 -2 13 C-2.99 13 -3.98 13 -5 13 C-4.54554036 11.58208592 -4.08625056 10.16571954 -3.625 8.75 C-3.24214844 7.56664063 -3.24214844 7.56664063 -2.8515625 6.359375 C-2.04826333 4.13372042 -1.10288338 2.09068328 0 0 Z M1 5 C2 7 2 7 2 7 Z " fill="#FFFFFF" transform="translate(314,94)"/>
<path d="M0 0 C1.32 0.33 2.64 0.66 4 1 C4 3.64 4 6.28 4 9 C6.97 9.495 6.97 9.495 10 10 C10 10.99 10 11.98 10 13 C6.7 13 3.4 13 0 13 C0 8.71 0 4.42 0 0 Z " fill="#FFFFFF" transform="translate(293,94)"/>
<path d="M0 0 C3.63 0 7.26 0 11 0 C11 0.99 11 1.98 11 3 C10.01 3 9.02 3 8 3 C8 6.3 8 9.6 8 13 C7.01 13 6.02 13 5 13 C5 9.7 5 6.4 5 3 C3.35 3 1.7 3 0 3 C0 2.01 0 1.02 0 0 Z " fill="#FEFEFE" transform="translate(165,94)"/>
<path d="M0 0 C0.99 0 1.98 0 3 0 C3 3.3 3 6.6 3 10 C4.98 10 6.96 10 9 10 C9 10.99 9 11.98 9 13 C6.03 13 3.06 13 0 13 C0 8.71 0 4.42 0 0 Z " fill="#FFFFFF" transform="translate(191,94)"/>
<path d="M0 0 C1.32 0 2.64 0 4 0 C4 4.29 4 8.58 4 13 C2.68 13 1.36 13 0 13 C0 8.71 0 4.42 0 0 Z " fill="#FFFFFF" transform="translate(288,94)"/>
<path d="M0 0 C1.32 0 2.64 0 4 0 C4 4.29 4 8.58 4 13 C2.68 13 1.36 13 0 13 C0 8.71 0 4.42 0 0 Z " fill="#FFFFFF" transform="translate(228,94)"/>
<path d="M0 0 C0.99 0 1.98 0 3 0 C3 4.29 3 8.58 3 13 C2.01 13 1.02 13 0 13 C0 8.71 0 4.42 0 0 Z " fill="#FFFFFF" transform="translate(336,94)"/>
<path d="M0 0 C0.99 0 1.98 0 3 0 C3 4.29 3 8.58 3 13 C2.01 13 1.02 13 0 13 C0 8.71 0 4.42 0 0 Z " fill="#FFFFFF" transform="translate(304,94)"/>
<path d="M0 0 C0.99 0 1.98 0 3 0 C3 4.29 3 8.58 3 13 C2.01 13 1.02 13 0 13 C0 8.71 0 4.42 0 0 Z " fill="#FFFFFF" transform="translate(161,94)"/>
</svg>
