<?xml version="1.0" encoding="UTF-8"?>
<svg version="1.1" xmlns="http://www.w3.org/2000/svg" width="400" height="129">
<path d="M0 0 C2.62464806 1.37346101 4.85035974 2.87577508 7.19287109 4.6875 C8.05887939 5.35201172 8.9248877 6.01652344 9.81713867 6.70117188 C11.17875122 7.76174805 11.17875122 7.76174805 12.56787109 8.84375 C14.44633036 10.30265904 16.32523634 11.76099309 18.20458984 13.21875 C19.11772949 13.92773438 20.03086914 14.63671875 20.97167969 15.3671875 C23.2267729 17.08406118 25.50719423 18.73135182 27.83740234 20.34375 C28.75102539 20.99053711 28.75102539 20.99053711 29.68310547 21.65039062 C31.26480094 22.76249182 32.86302701 23.85097886 34.46240234 24.9375 C36.56787109 27.34375 36.56787109 27.34375 36.95458984 31.22265625 C36.64234073 35.83706392 35.82479337 40.3556882 35.00537109 44.90234375 C34.86099609 46.03800781 34.71662109 47.17367187 34.56787109 48.34375 C34.47111084 49.0035083 34.37435059 49.6632666 34.2746582 50.34301758 C33.65528239 57.84209972 37.28093049 62.97092593 41.13037109 69.15625 C42.37179406 71.17690461 43.60280857 73.20400222 44.82177734 75.23828125 C45.37164307 76.12362549 45.92150879 77.00896973 46.48803711 77.92114258 C47.56787109 80.34375 47.56787109 80.34375 47.49316406 82.49633789 C46.25187594 84.97465642 44.93005665 85.67590912 42.50927734 87.0078125 C41.6565625 87.48581299 40.80384766 87.96381348 39.92529297 88.45629883 C39.00296875 88.95540771 38.08064453 89.4545166 37.13037109 89.96875 C36.19128906 90.48783936 35.25220703 91.00692871 34.28466797 91.54174805 C32.33999693 92.6163916 30.39285666 93.68657812 28.44335938 94.75244141 C25.72002245 96.25954873 23.02941789 97.81119708 20.34521484 99.38671875 C19.53818115 99.8544873 18.73114746 100.32225586 17.8996582 100.80419922 C16.3752905 101.68808031 14.85628009 102.58128329 13.34350586 103.48486328 C12.30987915 104.07436768 12.30987915 104.07436768 11.25537109 104.67578125 C10.66111328 105.02358643 10.06685547 105.3713916 9.45458984 105.72973633 C4.90078831 107.21172531 0.38959188 104.53566959 -3.74462891 102.71875 C-4.34728577 102.45572586 -4.94994263 102.19270172 -5.57086182 101.92170715 C-7.52667423 101.06699864 -9.4794159 100.20551305 -11.43212891 99.34375 C-13.4569271 98.45582218 -15.48237415 97.56938664 -17.50787354 96.68305969 C-18.86404782 96.0894816 -20.21996425 95.49531405 -21.57562256 94.90055847 C-25.70885203 93.08908873 -29.85297625 91.30660605 -34.01025391 89.55078125 C-34.97833984 89.14150391 -35.94642578 88.73222656 -36.94384766 88.31054688 C-38.73142371 87.55701089 -40.5204292 86.80685441 -42.31103516 86.06054688 C-43.49246094 85.56071289 -43.49246094 85.56071289 -44.69775391 85.05078125 C-45.37612305 84.7669458 -46.05449219 84.48311035 -46.75341797 84.19067383 C-48.43212891 83.34375 -48.43212891 83.34375 -50.43212891 81.34375 C-50.81177993 79.0031221 -51.07570053 76.64332825 -51.28369141 74.28125 C-51.34744965 73.57532715 -51.41120789 72.8694043 -51.47689819 72.14208984 C-51.61044873 70.64278941 -51.73961022 69.14309259 -51.86474609 67.64306641 C-52.0541365 65.3795146 -52.25750798 63.11757451 -52.46337891 60.85546875 C-52.83582262 56.68780953 -53.13652541 52.51753421 -53.43212891 48.34375 C-53.53340088 47.3237793 -53.63467285 46.30380859 -53.73901367 45.25292969 C-54.12869065 39.38859261 -54.12869065 39.38859261 -52.32666016 36.68554688 C-50.6890012 35.10940619 -49.00183099 33.86736554 -47.11962891 32.59375 C-46.11778564 31.85596313 -46.11778564 31.85596313 -45.09570312 31.10327148 C-43.65037751 30.04373076 -42.19448541 28.99848471 -40.72949219 27.96630859 C-37.59498885 25.75250316 -34.52164061 23.45963717 -31.44165039 21.17089844 C-29.05278354 19.40303425 -26.64904646 17.65678673 -24.24462891 15.91015625 C-20.97062183 13.51377973 -17.77701781 11.04406016 -14.61962891 8.49609375 C-13.85183105 7.88306396 -13.0840332 7.27003418 -12.29296875 6.63842773 C-10.83323047 5.46671599 -9.38495307 4.28053986 -7.95019531 3.07836914 C-7.29712402 2.55750732 -6.64405273 2.03664551 -5.97119141 1.5 C-5.40609863 1.03400391 -4.84100586 0.56800781 -4.25878906 0.08789062 C-2.43212891 -0.65625 -2.43212891 -0.65625 0 0 Z M-1.43212891 6.34375 C-2.89530283 8.65744545 -4.30182506 10.9831327 -5.68603516 13.34375 C-6.10634506 14.05402344 -6.52665497 14.76429687 -6.95970154 15.49609375 C-8.30814296 17.77661914 -9.65142538 20.06013638 -10.99462891 22.34375 C-11.90509929 23.88561566 -12.81590213 25.42728506 -13.72705078 26.96875 C-15.96594826 30.7581457 -18.20022185 34.55023317 -20.43212891 38.34375 C-19.77212891 38.67375 -19.11212891 39.00375 -18.43212891 39.34375 C-16.30136832 38.54085742 -14.2120198 37.62732136 -12.14697266 36.66796875 C-11.22254112 36.24013847 -11.22254112 36.24013847 -10.2794342 35.80366516 C-8.97559528 35.1979018 -7.67358797 34.58818297 -6.37329102 33.97485352 C-4.37885853 33.03559659 -2.37783381 32.11169934 -0.37548828 31.18945312 C0.88860692 30.59986511 2.1522932 30.00939939 3.41552734 29.41796875 C4.57060791 28.87744873 5.72568848 28.33692871 6.91577148 27.7800293 C9.67077531 26.61588151 9.67077531 26.61588151 10.56787109 24.34375 C9.68208233 22.35872333 9.68208233 22.35872333 8.29443359 20.2109375 C7.79943359 19.40527344 7.30443359 18.59960938 6.79443359 17.76953125 C6.26591797 16.92777344 5.73740234 16.08601563 5.19287109 15.21875 C4.41169922 13.94451172 4.41169922 13.94451172 3.61474609 12.64453125 C1.65187513 9.4542272 1.65187513 9.4542272 -0.43212891 6.34375 C-0.76212891 6.34375 -1.09212891 6.34375 -1.43212891 6.34375 Z M-11.43212891 12.34375 C-12.00543945 12.78130615 -12.57875 13.2188623 -13.16943359 13.66967773 C-15.83994541 15.70737573 -18.51104038 17.74430804 -21.18212891 19.78125 C-22.61637207 20.87590576 -22.61637207 20.87590576 -24.07958984 21.99267578 C-28.19268086 25.12868134 -32.30534954 28.26355171 -36.46337891 31.33984375 C-37.02057617 31.75242432 -37.57777344 32.16500488 -38.15185547 32.59008789 C-39.5812201 33.64432412 -41.01434799 34.69345267 -42.44775391 35.7421875 C-44.53206693 37.19767233 -44.53206693 37.19767233 -45.43212891 39.34375 C-37.01712891 41.32375 -37.01712891 41.32375 -28.43212891 43.34375 C-26.0161605 39.48491157 -23.60043366 35.62633323 -21.19384766 31.76171875 C-19.46173424 28.98343546 -17.7154816 26.21527936 -15.95166016 23.45703125 C-15.21593552 22.29430092 -14.48025585 21.13154214 -13.74462891 19.96875 C-13.08076172 18.92976563 -12.41689453 17.89078125 -11.73291016 16.8203125 C-11.30365234 16.00304687 -10.87439453 15.18578125 -10.43212891 14.34375 C-10.92712891 13.35375 -10.92712891 13.35375 -11.43212891 12.34375 Z M9.56787109 13.34375 C11.22757353 18.03859887 13.69786955 22.10047079 16.25537109 26.34375 C20.56716659 33.57585693 24.65277443 40.88950966 28.56787109 48.34375 C28.89787109 48.34375 29.22787109 48.34375 29.56787109 48.34375 C29.90861929 46.49093166 30.24008892 44.63640605 30.56787109 42.78125 C30.75349609 41.74871094 30.93912109 40.71617188 31.13037109 39.65234375 C31.27474609 38.56050781 31.41912109 37.46867187 31.56787109 36.34375 C31.76896484 35.20679687 31.97005859 34.06984375 32.17724609 32.8984375 C31.21147724 27.26478588 27.29543597 25.22803903 22.81787109 22.03125 C21.99287109 21.41185547 21.16787109 20.79246094 20.31787109 20.15429688 C16.83904571 17.57042738 13.50004497 15.18938497 9.56787109 13.34375 Z M8.56787109 31.34375 C-11.74000841 37.87308364 -26.82605427 44.05855072 -37.03121948 63.57626343 C-39.47523608 68.37794704 -41.72620765 73.22598623 -43.43212891 78.34375 C-31.55212891 78.34375 -19.67212891 78.34375 -7.43212891 78.34375 C-3.20863407 68.23534909 -3.20863407 68.23534909 0.71630859 58.0234375 C0.97795807 57.31269073 1.23960754 56.60194397 1.50918579 55.86965942 C2.04993236 54.39672564 2.58919411 52.92324589 3.12695312 51.44921875 C3.9553255 49.18470349 4.7947673 46.92446881 5.63427734 44.6640625 C6.16230082 43.22160281 6.68967007 41.77890342 7.21630859 40.3359375 C7.46826996 39.66207001 7.72023132 38.98820251 7.97982788 38.29391479 C8.56757316 36.66374738 9.07544356 35.00519679 9.56787109 33.34375 C9.07287109 32.35375 9.07287109 32.35375 8.56787109 31.34375 Z M14.56787109 32.34375 C10.44061943 42.50425793 6.37781714 52.68438584 2.56787109 62.96875 C2.26550537 63.77932861 1.96313965 64.58990723 1.65161133 65.42504883 C0.12138982 69.2816559 0.12138982 69.2816559 -0.43212891 73.34375 C2.40063829 72.00100102 4.91726644 70.48606475 7.46630859 68.6640625 C8.19333984 68.14714844 8.92037109 67.63023438 9.66943359 67.09765625 C10.41966797 66.56011719 11.16990234 66.02257812 11.94287109 65.46875 C16.77368675 62.02176174 21.60798488 58.6031038 26.56787109 55.34375 C25.99378077 51.77010641 25.06842073 49.05990696 23.28271484 45.91796875 C22.83476563 45.12197266 22.38681641 44.32597656 21.92529297 43.50585938 C21.45671875 42.68923828 20.98814453 41.87261719 20.50537109 41.03125 C20.03292969 40.19529297 19.56048828 39.35933594 19.07373047 38.49804688 C17.91119353 36.44305735 16.74245019 34.39187263 15.56787109 32.34375 C15.23787109 32.34375 14.90787109 32.34375 14.56787109 32.34375 Z M-48.43212891 43.34375 C-47.75158636 57.86752027 -47.75158636 57.86752027 -46.43212891 72.34375 C-42.43286912 68.6502985 -39.97034174 63.96905634 -37.18212891 59.34375 C-36.61494141 58.42851563 -36.04775391 57.51328125 -35.46337891 56.5703125 C-34.66673828 55.25160156 -34.66673828 55.25160156 -33.85400391 53.90625 C-33.36512695 53.10316406 -32.87625 52.30007812 -32.37255859 51.47265625 C-31.09650003 49.22963638 -31.09650003 49.22963638 -32.43212891 46.34375 C-35.35152484 45.30506863 -35.35152484 45.30506863 -38.80712891 44.65625 C-39.96986328 44.40488281 -41.13259766 44.15351562 -42.33056641 43.89453125 C-45.39941222 43.25632683 -45.39941222 43.25632683 -48.43212891 43.34375 Z M24.81396484 60.9765625 C23.65477539 61.81574219 23.65477539 61.81574219 22.47216797 62.671875 C21.658125 63.26484375 20.84408203 63.8578125 20.00537109 64.46875 C18.82491211 65.32339844 18.82491211 65.32339844 17.62060547 66.1953125 C15.26456538 67.9045584 12.91503171 69.62233503 10.56787109 71.34375 C9.39248779 72.20178223 9.39248779 72.20178223 8.19335938 73.07714844 C7.4622998 73.61629883 6.73124023 74.15544922 5.97802734 74.7109375 C4.99201538 75.43579346 4.99201538 75.43579346 3.98608398 76.17529297 C3.51807373 76.56088379 3.05006348 76.94647461 2.56787109 77.34375 C2.56787109 77.67375 2.56787109 78.00375 2.56787109 78.34375 C10.37591005 79.62161205 18.18149791 79.45533147 26.06787109 79.40625 C27.47672367 79.40122533 28.88557798 79.39666413 30.29443359 79.39257812 C33.71895747 79.3808503 37.14339156 79.36443691 40.56787109 79.34375 C39.36439736 76.21138854 38.06321948 73.27129074 36.40380859 70.35546875 C36.00419922 69.64970703 35.60458984 68.94394531 35.19287109 68.21679688 C34.78037109 67.49556641 34.36787109 66.77433594 33.94287109 66.03125 C33.52263672 65.29068359 33.10240234 64.55011719 32.66943359 63.78710938 C31.63838614 61.97105989 30.60351064 60.15718467 29.56787109 58.34375 C27.70916542 58.34375 26.2636477 59.92465133 24.81396484 60.9765625 Z M-34.43212891 83.34375 C-31.21069225 85.49137444 -27.87799937 87.02953472 -24.35791016 88.6015625 C-23.67407761 88.90947723 -22.99024506 89.21739197 -22.28569031 89.53463745 C-20.10646168 90.51520085 -17.92557766 91.49201934 -15.74462891 92.46875 C-14.26470044 93.1338682 -12.78488141 93.79922995 -11.30517578 94.46484375 C-7.68208944 96.09397211 -4.05751418 97.71974441 -0.43212891 99.34375 C-0.43212891 95.47900139 -1.77705306 93.13880542 -3.43212891 89.65625 C-4.91712891 86.5315625 -4.91712891 86.5315625 -6.43212891 83.34375 C-15.67212891 83.34375 -24.91212891 83.34375 -34.43212891 83.34375 Z M-1.43212891 83.34375 C-0.08363054 87.70345831 1.61694955 91.65716438 3.69287109 95.71875 C4.23169922 96.77835938 4.77052734 97.83796875 5.32568359 98.9296875 C5.73560547 99.72632812 6.14552734 100.52296875 6.56787109 101.34375 C16.27528192 96.0837873 25.9214156 90.71440175 35.56787109 85.34375 C35.56787109 85.01375 35.56787109 84.68375 35.56787109 84.34375 C23.23613885 83.14690944 10.94419181 83.23978763 -1.43212891 83.34375 Z " fill="#FF7A00" transform="translate(68.43212890625,10.65625)"/>
<path d="M0 0 C8 0 8 0 10.8359375 2.60546875 C11.70811066 3.78075179 12.55343963 4.97629613 13.375 6.1875 C14.30591877 7.46489536 15.23691018 8.74223778 16.16796875 10.01953125 C16.8647876 11.00493896 16.8647876 11.00493896 17.57568359 12.01025391 C19.39516815 14.55204327 21.30027847 17.0205403 23.2199707 19.48706055 C25.15912044 21.98172781 27.07754248 24.49244671 29 27 C29.33 18.09 29.66 9.18 30 0 C32.97 0 35.94 0 39 0 C40 1 40 1 40.12025452 2.86659241 C40.11803391 3.68155685 40.11581329 4.4965213 40.11352539 5.33618164 C40.11344986 6.2570607 40.11337433 7.17793976 40.11329651 8.12672424 C40.10813522 9.12775681 40.10297394 10.12878937 40.09765625 11.16015625 C40.0962413 12.17975937 40.09482635 13.19936249 40.09336853 14.24986267 C40.08775097 17.52077107 40.0751955 20.79161213 40.0625 24.0625 C40.05748726 26.27408756 40.05292396 28.48567618 40.04882812 30.69726562 C40.03777584 36.13153357 40.02102063 41.56576197 40 47 C31.74997398 47.49215609 31.74997398 47.49215609 29.00366211 45.68994141 C28.59897705 45.08327637 28.19429199 44.47661133 27.77734375 43.8515625 C27.30103516 43.17480469 26.82472656 42.49804688 26.33398438 41.80078125 C25.87314453 41.08277344 25.41230469 40.36476562 24.9375 39.625 C20.51639712 33.16197304 15.92637137 27.15796422 11 21 C10.67 29.58 10.34 38.16 10 47 C6.7 47 3.4 47 0 47 C0 31.49 0 15.98 0 0 Z " fill="#002358" transform="translate(283,31)"/>
<path d="M0 0 C4.125 -0.0825 8.25 -0.165 12.5 -0.25 C13.78455078 -0.28641602 15.06910156 -0.32283203 16.39257812 -0.36035156 C23.43636424 -0.42829101 28.04076942 0.15739721 34 4 C37.02372329 7.21880222 37.92217838 9.94940815 38.25 14.375 C37.80852156 20.77643736 34.41184633 23.65313995 30 28 C30.27263672 28.50450684 30.54527344 29.00901367 30.82617188 29.52880859 C32.05507786 31.80858674 33.27760374 34.0917253 34.5 36.375 C34.92925781 37.1690625 35.35851562 37.963125 35.80078125 38.78125 C36.20683594 39.54179688 36.61289062 40.30234375 37.03125 41.0859375 C37.40830078 41.7876709 37.78535156 42.4894043 38.17382812 43.21240234 C39 45 39 45 39 47 C35.37 47 31.74 47 28 47 C26.49498012 44.21093539 24.9958193 41.41899281 23.5 38.625 C23.07074219 37.8309375 22.64148438 37.036875 22.19921875 36.21875 C21.79316406 35.45820312 21.38710937 34.69765625 20.96875 33.9140625 C20.59169922 33.2123291 20.21464844 32.5105957 19.82617188 31.78759766 C19 30 19 30 19 28 C16.03 28 13.06 28 10 28 C10 34.27 10 40.54 10 47 C6.7 47 3.4 47 0 47 C0 31.49 0 15.98 0 0 Z M10 9 C10 12.3 10 15.6 10 19 C12.62561109 19.08074203 15.24875676 19.1403623 17.875 19.1875 C18.62136719 19.21263672 19.36773437 19.23777344 20.13671875 19.26367188 C22.56221828 19.3298764 22.56221828 19.3298764 26 19 C28.31543207 16.23011924 28.31543207 16.23011924 27.6875 13.375 C27.2258486 11.06498035 27.2258486 11.06498035 26 10 C23.30764224 9.76321284 20.63501844 9.57801975 17.9375 9.4375 C17.17888672 9.39431641 16.42027344 9.35113281 15.63867188 9.30664062 C13.75934562 9.20026367 11.87969756 9.09960066 10 9 Z " fill="#002358" transform="translate(222,31)"/>
<path d="M0 0 C5.83340867 5.38556824 8.95558409 10.34439192 9.3125 18.375 C9.11022278 25.07262359 7.31898136 29.92485264 2.6875 34.8125 C-3.1061901 40.17838598 -9.00990127 42.35649534 -16.85546875 42.2109375 C-23.83035364 41.52488325 -29.35830253 38.14699618 -34 33 C-38.1665076 27.61672469 -38.74783286 21.93764879 -38.5 15.25390625 C-37.5039009 8.77148009 -34.71230507 4.11966425 -29.55078125 0.0859375 C-19.91721697 -5.99083997 -9.5939227 -6.80544517 0 0 Z M-26 10 C-28.69117164 14.47594172 -28.89846163 18.91392591 -28 24 C-25.93367855 27.78019343 -23.23854523 30.21776091 -19.625 32.5 C-14.62542443 33.45230011 -10.5659857 32.93959142 -6.1875 30.3125 C-3.13496846 27.08553809 -1.06717289 24.37624101 -0.9375 19.7890625 C-1.39487693 14.05279352 -2.63340176 10.07973785 -7.0625 6.1875 C-14.55998299 3.15660262 -20.59574604 4.05532065 -26 10 Z " fill="#002358" transform="translate(366,36)"/>
<path d="M0 0 C4.6972275 3.3870504 8.31859574 7.22770533 9.828125 12.86328125 C9.84875 13.68828125 9.869375 14.51328125 9.890625 15.36328125 C6.51268216 15.64847342 3.25831032 15.81157702 -0.109375 15.36328125 C-1.921875 13.05078125 -1.921875 13.05078125 -3.109375 10.36328125 C-6.80212204 7.21358524 -10.19449312 6.83952725 -14.890625 7.01171875 C-18.41679507 7.57044288 -20.49014191 8.99958309 -23.109375 11.36328125 C-25.54475516 15.34844878 -25.81642679 19.79876971 -25.109375 24.36328125 C-23.19243806 28.42718757 -21.68018998 30.02940834 -17.796875 32.30078125 C-13.62008815 33.50426221 -11.28504381 33.52318925 -7.109375 32.36328125 C-3.92685977 30.24160443 -2.23670361 28.55427417 -0.109375 25.36328125 C2.2734375 25.0703125 2.2734375 25.0703125 5.015625 25.17578125 C6.38074219 25.21638672 6.38074219 25.21638672 7.7734375 25.2578125 C8.47210938 25.29261719 9.17078125 25.32742187 9.890625 25.36328125 C9.09331381 31.24089579 6.09870095 34.38019154 1.890625 38.36328125 C-3.98789038 42.64078724 -9.86334775 44.29454884 -17.109375 43.36328125 C-24.49330628 40.98811669 -30.04371869 37.63886744 -33.921875 30.80078125 C-36.80679638 24.60185208 -37.34652956 18.74326946 -35.48046875 12.13671875 C-32.58297193 5.40621043 -26.87234467 0.33289926 -20.234375 -2.63671875 C-13.40102477 -4.79391363 -6.17265505 -3.45016289 0 0 Z " fill="#002358" transform="translate(151.109375,34.63671875)"/>
<path d="M0 0 C0.80103149 0.00202423 1.60206299 0.00404846 2.42736816 0.00613403 C3.24483521 0.00517731 4.06230225 0.00422058 4.90454102 0.00323486 C6.63627194 0.00255308 8.3680054 0.00440724 10.09973145 0.00857544 C12.75978298 0.01392374 15.41966566 0.00863041 18.07971191 0.00222778 C19.75809771 0.00288857 21.43648339 0.00416973 23.11486816 0.00613403 C23.91589966 0.0041098 24.71693115 0.00208557 25.54223633 0 C31.15616738 0.02399575 31.15616738 0.02399575 32.27111816 1.13894653 C32.40393066 2.95144653 32.40393066 2.95144653 32.39611816 5.13894653 C32.39998535 6.22175903 32.39998535 6.22175903 32.40393066 7.32644653 C32.27111816 9.13894653 32.27111816 9.13894653 31.27111816 10.13894653 C27.31111816 10.13894653 23.35111816 10.13894653 19.27111816 10.13894653 C18.94111816 22.34894653 18.61111816 34.55894653 18.27111816 47.13894653 C14.97111816 47.13894653 11.67111816 47.13894653 8.27111816 47.13894653 C8.27111816 34.92894653 8.27111816 22.71894653 8.27111816 10.13894653 C3.65111816 10.13894653 -0.96888184 10.13894653 -5.72888184 10.13894653 C-6.72888184 9.13894653 -6.72888184 9.13894653 -6.86169434 7.32644653 C-6.85911621 6.60457153 -6.85653809 5.88269653 -6.85388184 5.13894653 C-6.85645996 4.41707153 -6.85903809 3.69519653 -6.86169434 2.95144653 C-6.56291364 -1.1260312 -3.35674391 0.0143478 0 0 Z " fill="#002358" transform="translate(186.7288818359375,30.861053466796875)"/>
<path d="M0 0 C3.3 0 6.6 0 10 0 C10 15.51 10 31.02 10 47 C6.7 47 3.4 47 0 47 C0 31.49 0 15.98 0 0 Z " fill="#002358" transform="translate(266,31)"/>
<path d="M0 0 C3.3 0 6.6 0 10 0 C10 15.51 10 31.02 10 47 C6.7 47 3.4 47 0 47 C0 31.49 0 15.98 0 0 Z " fill="#002358" transform="translate(166,31)"/>
<path d="M0 0 C2.4375 0.8125 2.4375 0.8125 5.4375 2.8125 C5.80875 2.296875 6.18 1.78125 6.5625 1.25 C8.4375 -0.1875 8.4375 -0.1875 11.625 0.125 C12.553125 0.351875 13.48125 0.57875 14.4375 0.8125 C14.7675 2.1325 15.0975 3.4525 15.4375 4.8125 C13.4575 4.1525 11.4775 3.4925 9.4375 2.8125 C9.4375 3.4725 9.4375 4.1325 9.4375 4.8125 C11.9125 5.3075 11.9125 5.3075 14.4375 5.8125 C14.7675 7.4625 15.0975 9.1125 15.4375 10.8125 C12.4375 12.8125 12.4375 12.8125 9.75 12.4375 C8.986875 12.23125 8.22375 12.025 7.4375 11.8125 C6.8840236 9.73696352 6.4375 7.96884036 6.4375 5.8125 C5.880625 6.781875 5.32375 7.75125 4.75 8.75 C2.4375 11.8125 2.4375 11.8125 0 13 C-2.5625 12.8125 -2.5625 12.8125 -5.4375 10.6875 C-7.5625 7.8125 -7.5625 7.8125 -7.625 5.1875 C-5.94600395 1.43445001 -4.23072099 -0.30956495 0 0 Z M-2.5625 2.8125 C-3.2225 3.4725 -3.8825 4.1325 -4.5625 4.8125 C-4.2439823 6.92070797 -4.2439823 6.92070797 -3.5625 8.8125 C-1.67070797 9.4939823 -1.67070797 9.4939823 0.4375 9.8125 C1.0975 9.1525 1.7575 8.4925 2.4375 7.8125 C2.1189823 5.70429203 2.1189823 5.70429203 1.4375 3.8125 C-0.45429203 3.1310177 -0.45429203 3.1310177 -2.5625 2.8125 Z M8.4375 7.8125 C8.7675 8.4725 9.0975 9.1325 9.4375 9.8125 C10.4275 9.4825 11.4175 9.1525 12.4375 8.8125 C11.1175 8.4825 9.7975 8.1525 8.4375 7.8125 Z " fill="#002358" transform="translate(335.5625,88.1875)"/>
<path d="M0 0 C0.99 0 1.98 0 3 0 C4.6875 2.5 4.6875 2.5 6 5 C6.598125 4.175 7.19625 3.35 7.8125 2.5 C8.534375 1.675 9.25625 0.85 10 0 C10.99 0 11.98 0 13 0 C13 3.96 13 7.92 13 12 C11.68 12 10.36 12 9 12 C8.67 11.34 8.34 10.68 8 10 C7.01 10 6.02 10 5 10 C4.67 9.67 4.34 9.34 4 9 C3.67 10.32 3.34 11.64 3 13 C2.01 13 1.02 13 0 13 C0 8.71 0 4.42 0 0 Z " fill="#002358" transform="translate(240,88)"/>
<path d="M0 0 C6.0546875 -0.1953125 6.0546875 -0.1953125 8 0 C10.61304159 2.61304159 10.67498799 4.50789399 11.01953125 8.08984375 C11 10 11 10 10 12 C6.96995686 13.51502157 4.32447945 13.24625774 1 13 C0 12 0 12 -0.09765625 9.27734375 C-0.08605469 8.17519531 -0.07445312 7.07304688 -0.0625 5.9375 C-0.05347656 4.83277344 -0.04445313 3.72804688 -0.03515625 2.58984375 C-0.02355469 1.73519531 -0.01195312 0.88054687 0 0 Z M3 3 C3 3.66 3 4.32 3 5 C4.32 5 5.64 5 7 5 C7 4.34 7 3.68 7 3 C5.68 3 4.36 3 3 3 Z M4 8 C3.67 8.66 3.34 9.32 3 10 C4.65 9.67 6.3 9.34 8 9 C6.68 8.67 5.36 8.34 4 8 Z " fill="#002358" transform="translate(267,88)"/>
<path d="M0 0 C0.99 0 1.98 0 3 0 C3 3.3 3 6.6 3 10 C4.98 10 6.96 10 9 10 C9 7.03 9 4.06 9 1 C10.32 0.67 11.64 0.34 13 0 C13 3.96 13 7.92 13 12 C9.52669872 12.69466026 7.08697137 13.12011816 3.6875 13.0625 C1.8621875 13.0315625 1.8621875 13.0315625 0 13 C0 8.71 0 4.42 0 0 Z " fill="#002358" transform="translate(284,88)"/>
<path d="M0 0 C7.50769231 -0.36923077 7.50769231 -0.36923077 10 1.5 C10.495 2.2425 10.495 2.2425 11 3 C10.649375 3.721875 10.29875 4.44375 9.9375 5.1875 C8.89590983 8.3122705 9.10903428 9.88161996 10 13 C8.68 12.34 7.36 11.68 6 11 C6 10.01 6 9.02 6 8 C5.01 8 4.02 8 3 8 C3 9.65 3 11.3 3 13 C2.01 13 1.02 13 0 13 C0 8.71 0 4.42 0 0 Z M3 3 C3 3.66 3 4.32 3 5 C4.32 5 5.64 5 7 5 C7 4.34 7 3.68 7 3 C5.68 3 4.36 3 3 3 Z " fill="#002358" transform="translate(312,88)"/>
<path d="M0 0 C4 2 4 2 6 5 C6.33 3.35 6.66 1.7 7 0 C7.99 0 8.98 0 10 0 C10 4.29 10 8.58 10 13 C6 11 6 11 4 8 C3.34 9.65 2.68 11.3 2 13 C1.34 13 0.68 13 0 13 C0 8.71 0 4.42 0 0 Z " fill="#002358" transform="translate(228,88)"/>
<path d="M0 0 C2 2 2 2 2.25 4.9375 C2 8 2 8 0 11 C-3.16045842 12.19584913 -4.61198693 12.1379602 -7.8125 11 C-10 9 -10 9 -10.5625 5.5 C-10 2 -10 2 -8.375 0 C-5.18820399 -1.34180884 -3.28890107 -0.92947204 0 0 Z M-6 2 C-7.29633621 3.06645115 -7.29633621 3.06645115 -7.0625 5.5625 C-7.041875 6.366875 -7.02125 7.17125 -7 8 C-5.10820797 8.6814823 -5.10820797 8.6814823 -3 9 C-2.34 8.34 -1.68 7.68 -1 7 C-1 5.68 -1 4.36 -1 3 C-2.65614657 2.61781233 -4.32457024 2.28604898 -6 2 Z " fill="#002358" transform="translate(264,89)"/>
<path d="M0 0 C2.97 0 5.94 0 9 0 C9 0.99 9 1.98 9 3 C7.02 3 5.04 3 3 3 C3 3.66 3 4.32 3 5 C4.65 5 6.3 5 8 5 C8 5.99 8 6.98 8 8 C6.35 8 4.7 8 3 8 C3 8.66 3 9.32 3 10 C4.98 10 6.96 10 9 10 C9 10.99 9 11.98 9 13 C6.03 13 3.06 13 0 13 C0 8.71 0 4.42 0 0 Z " fill="#002358" transform="translate(197,88)"/>
<path d="M0 0 C-0.33 1.32 -0.66 2.64 -1 4 C-3.475 3.01 -3.475 3.01 -6 2 C-6 2.66 -6 3.32 -6 4 C-3.03 4.495 -3.03 4.495 0 5 C0.33 6.32 0.66 7.64 1 9 C-0.6875 10.5625 -0.6875 10.5625 -3 12 C-5.75 11.6875 -5.75 11.6875 -8 11 C-9.07889983 6.95412562 -9.0492837 4.09220643 -8 0 C-5.13822943 -1.43088528 -3.06624227 -0.59991697 0 0 Z M-6 7 C-5.67 7.66 -5.34 8.32 -5 9 C-4.34 9 -3.68 9 -3 9 C-3 8.34 -3 7.68 -3 7 C-3.99 7 -4.98 7 -6 7 Z " fill="#002358" transform="translate(216,89)"/>
<path d="M0 0 C2.9375 0.75 2.9375 0.75 4.9375 2.75 C4.6075 3.74 4.2775 4.73 3.9375 5.75 C2.9475 5.09 1.9575 4.43 0.9375 3.75 C-1.21524948 4.05840599 -1.21524948 4.05840599 -3.0625 4.75 C-2.7325 6.07 -2.4025 7.39 -2.0625 8.75 C0.2475 8.09 2.5575 7.43 4.9375 6.75 C4.625 8.625 4.625 8.625 3.9375 10.75 C0.9375 12.75 0.9375 12.75 -1.5625 12.5625 C-5.55318323 11.26552795 -5.55318323 11.26552795 -7.0625 8.75 C-6.9375 5.1875 -6.9375 5.1875 -6.0625 1.75 C-3.0625 -0.25 -3.0625 -0.25 0 0 Z " fill="#002358" transform="translate(128.0625,88.25)"/>
<path d="M0 0 C3 1 3 1 4.16796875 2.9609375 C4.50441406 3.75757812 4.84085937 4.55421875 5.1875 5.375 C5.53167969 6.16648437 5.87585938 6.95796875 6.23046875 7.7734375 C7 10 7 10 7 13 C6.01 13 5.02 13 4 13 C3.67 12.34 3.34 11.68 3 11 C0.47266765 10.34444881 0.47266765 10.34444881 -2 10 C-2.33 10.99 -2.66 11.98 -3 13 C-3.99 12.67 -4.98 12.34 -6 12 C-4.02 8.04 -2.04 4.08 0 0 Z " fill="#002358" transform="translate(304,88)"/>
<path d="M0 0 C7.39954511 -0.36391205 7.39954511 -0.36391205 10.0625 1.25 C11 3 11 3 10.6875 5.1875 C10.3471875 6.0846875 10.3471875 6.0846875 10 7 C7.69 7.33 5.38 7.66 3 8 C3 9.65 3 11.3 3 13 C2.01 12.67 1.02 12.34 0 12 C0 8.04 0 4.08 0 0 Z M3 3 C3 3.66 3 4.32 3 5 C4.32 5 5.64 5 7 5 C7 4.34 7 3.68 7 3 C5.68 3 4.36 3 3 3 Z " fill="#002358" transform="translate(148,88)"/>
<path d="M0 0 C3 1 3 1 4.16796875 2.9609375 C4.50441406 3.75757812 4.84085938 4.55421875 5.1875 5.375 C5.53167969 6.16648437 5.87585938 6.95796875 6.23046875 7.7734375 C7 10 7 10 7 13 C6.01 13 5.02 13 4 13 C3.67 12.34 3.34 11.68 3 11 C0.47266765 10.34444881 0.47266765 10.34444881 -2 10 C-2.33 10.99 -2.66 11.98 -3 13 C-3.99 12.67 -4.98 12.34 -6 12 C-4.02 8.04 -2.04 4.08 0 0 Z " fill="#002358" transform="translate(140,88)"/>
<path d="M0 0 C3 1 3 1 4.16796875 2.9609375 C4.50441406 3.75757812 4.84085938 4.55421875 5.1875 5.375 C5.53167969 6.16648437 5.87585938 6.95796875 6.23046875 7.7734375 C7 10 7 10 7 13 C6.01 13 5.02 13 4 13 C3.67 12.34 3.34 11.68 3 11 C0.47266765 10.34444881 0.47266765 10.34444881 -2 10 C-2.33 10.99 -2.66 11.98 -3 13 C-3.66 13 -4.32 13 -5 13 C-4.48474397 7.71862571 -2.74522883 4.42778844 0 0 Z " fill="#002358" transform="translate(179,88)"/>
<path d="M0 0 C3.3 0 6.6 0 10 0 C10 0.99 10 1.98 10 3 C9.01 3 8.02 3 7 3 C7 6.3 7 9.6 7 13 C6.01 13 5.02 13 4 13 C4 9.7 4 6.4 4 3 C2.68 3 1.36 3 0 3 C0 2.01 0 1.02 0 0 Z " fill="#002358" transform="translate(164,88)"/>
<path d="M0 0 C0.99 0 1.98 0 3 0 C3 3.3 3 6.6 3 10 C4.98 10 6.96 10 9 10 C9 10.99 9 11.98 9 13 C2.84765625 13.09765625 2.84765625 13.09765625 1 13 C0 12 0 12 -0.09765625 9.27734375 C-0.08605469 8.17519531 -0.07445312 7.07304688 -0.0625 5.9375 C-0.05347656 4.83277344 -0.04445312 3.72804688 -0.03515625 2.58984375 C-0.02355469 1.73519531 -0.01195312 0.88054687 0 0 Z " fill="#002358" transform="translate(187,88)"/>
<path d="M0 0 C0.99 0 1.98 0 3 0 C3 4.29 3 8.58 3 13 C2.01 13 1.02 13 0 13 C0 8.71 0 4.42 0 0 Z " fill="#002358" transform="translate(324,88)"/>
<path d="M0 0 C0.99 0 1.98 0 3 0 C3 4.29 3 8.58 3 13 C2.01 13 1.02 13 0 13 C0 8.71 0 4.42 0 0 Z " fill="#002358" transform="translate(279,88)"/>
<path d="M0 0 C0.99 0 1.98 0 3 0 C3 4.29 3 8.58 3 13 C2.01 13 1.02 13 0 13 C0 8.71 0 4.42 0 0 Z " fill="#002358" transform="translate(223,88)"/>
<path d="M0 0 C0.99 0 1.98 0 3 0 C3 4.29 3 8.58 3 13 C2.01 13 1.02 13 0 13 C0 8.71 0 4.42 0 0 Z " fill="#002358" transform="translate(160,88)"/>
</svg>
